<?xml version="1.0" encoding="UTF-8"?>
<svg id="Layer_1" xmlns="http://www.w3.org/2000/svg" version="1.1" xmlns:xlink="http://www.w3.org/1999/xlink" viewBox="0 0 32 32">
  <!-- Generator: Adobe Illustrator 29.8.2, SVG Export Plug-In . SVG Version: 2.1.1 Build 3)  -->
  <defs>
    <style>
      .st0 {
        fill: #fff;
      }

      .st1 {
        fill: url(#radial-gradient);
      }

      .st2 {
        fill: url(#radial-gradient1);
      }

      .st3 {
        fill: url(#radial-gradient2);
      }

      .st4 {
        fill: #123255;
      }
    </style>
    <radialGradient id="radial-gradient" cx="-3256.3" cy="2043.1" fx="-3339.9" fy="2086.3" r="105.1" gradientTransform="translate(309 203.7) rotate(9.8) scale(0 0)" gradientUnits="userSpaceOnUse">
      <stop offset="0" stop-color="#fff"/>
      <stop offset=".4" stop-color="#ee434e"/>
      <stop offset=".7" stop-color="#be1e2d"/>
    </radialGradient>
    <radialGradient id="radial-gradient1" cx="-3221.3" cy="2137" fx="-3221.3" fy="2080.1" r="96.4" gradientTransform="translate(312 272) rotate(5.5) scale(0 -.1)" gradientUnits="userSpaceOnUse">
      <stop offset="0" stop-color="#fff"/>
      <stop offset=".4" stop-color="#8bc53f"/>
      <stop offset=".7" stop-color="#006838"/>
    </radialGradient>
    <radialGradient id="radial-gradient2" cx="-3274.2" cy="2154.1" fx="-3274.2" fy="2154.1" r="142.8" gradientTransform="translate(335.6 221.6) scale(0 0)" gradientUnits="userSpaceOnUse">
      <stop offset="0" stop-color="#fff"/>
      <stop offset=".4" stop-color="#f9ec31"/>
      <stop offset=".7" stop-color="#f6921e"/>
    </radialGradient>
  </defs>
  <path class="st0" d="M24.5,7.5c-2.3-2.3-5.3-3.5-8.5-3.5s-6.2,1.3-8.5,3.5c-2.3,2.3-3.5,5.3-3.5,8.5s1.3,6.2,3.5,8.5c2.3,2.3,5.3,3.5,8.5,3.5s6.2-1.3,8.5-3.5c2.3-2.3,3.5-5.3,3.5-8.5s-1.3-6.2-3.5-8.5ZM23.2,8.8c.5.5.9,1,1.3,1.6l-3.9,4.6-3.2-9c2.2.3,4.3,1.3,5.8,2.9ZM19.2,16.6l-2.1,2.5-3.2-.6-1.1-3,2.1-2.5,3.2.6,1.1,3ZM8.8,8.8c1.7-1.8,4.1-2.8,6.5-3l2,5.7-9.4-1.7c.3-.3.6-.7.9-1ZM6.6,19.9c-.5-1.3-.8-2.8-.8-4.2,0-1.4.4-2.9,1-4.2l5.9,1.1-6.2,7.3ZM8.8,23.2c-.5-.5-.9-1-1.3-1.6l3.9-4.6,3.2,9c-2.2-.3-4.3-1.3-5.8-2.9ZM23.2,23.2c-1.7,1.8-4.1,2.8-6.5,3l-2-5.7,9.4,1.7c-.3.3-.6.7-.9,1ZM19.2,19.4l6.2-7.3c.5,1.3.8,2.8.8,4.2,0,1.4-.4,2.9-1,4.2l-5.9-1.1Z"/>
  <g>
    <circle class="st4" cx="16.1" cy="16" r="13.4"/>
    <path class="st1" d="M26.8,19.1c-1.9,2.2-5,3.4-7.7,2.5,0,.1,0,.3,0,.4-.1.4-.4.9-.9.9-.1,0-.2,0-.3,0,0-.1,0-.1.1-.2.1,0,.2-.1.3-.2.3-.3.4-.7.3-1.1,0,0,0,0,0,0-.3-.1-.7-.3-1-.5,0,.8-1,1.7-1.8,1.7,0,0-.2,0-.2-.1,0,0,0,0,0-.1.2,0,.4-.2.6-.3.4-.3,1-1,.8-1.5,0,0,0,0,0,0-.4-.3-.7-.7-1-1.1,0,.4-.2.9-.5,1.2-.4.5-.9.8-1.5.9-.2,0-.4,0-.6,0,.2-.2.3-.1.5-.2.9-.3,1.6-1.2,1.6-2.2,0-.1,0-.2,0-.3-.9-1.3-1.8-2.7-3.7-2.4.2.3.5.3.8.6,1.2,1.5-.7,3.9-2.2,2.9-1.2-.8,1-2.3,1-1.6,0,0-1.3.4-.8,1.1.7.9,2.5-.9,1.5-2-1-1.1-2.7.3-3.3,1.2-2.2,3.3.4,7.3,3.6,8.6,3.9,1.5,8.4.2,11.3-2.6,1.5-1.4,2.6-3.3,3.2-5.3ZM24.2,21.4c-.3.6-.9.9-1.4,1.3-2.7,2-6.1,3-9.1,1.1-.8-.5-1.5-1.2-2.1-2-.2-.3-.5-.5-.4-.9,0,0,0,0,0,0,.2,0,.3.2.4.3.3.4.6.7.9,1.1,2.1,2.1,4.8,2.6,7.6,1.5.9-.3,1.7-.8,2.4-1.3.3-.2.5-.4.8-.6.2-.2.5-.4.8-.5,0,0,0,0,0,0Z"/>
    <path class="st2" d="M12.4,4.9l2.1.5c1.8.6,3.1,2,3.7,3.5,0,0,.2-.1.3-.2.4-.2,1-.2,1.3.1,0,0,.2.2.1.3-.1,0-.2,0-.2,0-.1,0-.2-.1-.4-.1-.3,0-.7.1-1,.3.1.4.2.7.2,1.1.7-.4,1.9-.2,2.3.4,0,0,0,.1,0,.3,0,0-.1,0-.1,0-.2-.1-.4-.2-.6-.3-.5-.1-1.2-.1-1.6.2,0,.5,0,1-.1,1.5.3-.2.7-.2,1-.2.6,0,1.2.2,1.6.6.1.1.3.3.3.5-.2,0-.3-.2-.5-.2-.8-.5-1.8-.5-2.6,0-.2.5-.4,1.1-.7,1.6,1.7-.6,4.2,1.3,3.3,3.1-.8,1.5-2.6.3-2.1-.8.2-.4.5-.4.8-.3,0,.4-.4.1-.5.4-.3.8,1.2,1.1,1.4.2.4-1.7-2.6-3.1-3.3-1-.6,1.9.7,3.6,2.5,4,3.7.9,7.3-2.1,7.6-5.8.5-7.3-8.5-12-14.9-9.9ZM23.1,14.7c-.1.3-.1.7-.5.9,0,0,0,0,0,0-.1-.2,0-.4,0-.5.1-.4.2-.9.3-1.4.4-3-1-5.4-3.6-6.8-.8-.5-1.7-.8-2.6-1.1-.3,0-.6-.2-.9-.2-.3,0-.6-.1-.9-.4,0,0,0,0,0,0,.7-.2,1.3.1,1.9.3,3.2.8,6.2,2.9,6.6,6.4.1,1,0,2-.2,2.9Z"/>
    <path class="st3" d="M17.5,10.8l-.6,1c-1.1,1.4-3.2.6-3-1.2,0-1,1.3-1.4,1.7-.5-.7,0-1.1-.4-1.1.6,0,1.4,1.8,1.3,2.2-.1.6-2.2-1.6-4.1-3.6-4.4-4.2-.7-7.3,2.7-8.3,6.5-.9,3.6,0,7.4,2.1,10.4,0-.5-.2-1-.2-1.4-.1-2,.6-3.9,2-5.2-.2,0-.4-.1-.6-.3-.3-.3-.6-.8-.4-1.2,0-.1,0-.2.2-.2,0,0,0,.1,0,.2,0,.1,0,.3,0,.4,0,.4.4.6.8.8,0,0,.1,0,.2.1,0,0,0,0,0,0,.3-.2.6-.5,1-.6-.8-.3-1.3-1.7-.9-2.4,0,0,0-.1.2-.1,0,0,0,0,0,.1,0,.2,0,.4,0,.6.1.6.4,1.4,1.1,1.4,0,0,0,0,.2,0,0,0,.2,0,.3,0,.4-.1.8-.2,1.2-.3-.5-.2-.8-.6-1-1.1-.2-.5-.3-1.2,0-1.7,0-.2.1-.4.4-.5,0,.2,0,.3,0,.5-.1.9.3,2,1.2,2.4.1,0,.3,0,.4.2,2.3-.4,4.5-.6,4.4-3.9ZM13,9.8c-.1.2-.3.2-.4.2-.5,0-.9.2-1.4.3-2.9.8-4.6,3-4.8,6-.1.9,0,1.9,0,2.8,0,.3,0,.6.1.9,0,.3.1.6,0,1,0,0,0,0,0,0-.4-.5-.4-1.2-.5-1.9-.5-3.3.2-6.8,3.3-8.6.9-.5,1.8-.8,2.8-1,.3,0,.7-.2,1,0,0,0,0,0,0,0Z"/>
    <g>
      <circle class="st4" cx="16" cy="1.4" r="1.4"/>
      <circle class="st4" cx="16" cy="30.7" r="1.4"/>
    </g>
    <g>
      <circle class="st4" cx="1.3" cy="16" r="1.4"/>
      <circle class="st4" cx="30.6" cy="16" r="1.4"/>
    </g>
  </g>
</svg>