<?xml version="1.0" encoding="UTF-8"?>
<svg id="Layer_1" xmlns="http://www.w3.org/2000/svg" version="1.1" xmlns:xlink="http://www.w3.org/1999/xlink" viewBox="0 0 109.3 109.7">
  <!-- Generator: Adobe Illustrator 29.8.2, SVG Export Plug-In . SVG Version: 2.1.1 Build 3)  -->
  <defs>
    <style>
      .st0 {
        fill: url(#radial-gradient);
      }

      .st1 {
        fill: url(#radial-gradient1);
      }

      .st2 {
        fill: #123256;
      }

      .st3 {
        fill: url(#radial-gradient2);
      }
    </style>
    <radialGradient id="radial-gradient" cx="-6.5" cy="-230.2" fx="-33.2" fy="-216.4" r="33.6" gradientTransform="translate(42 -102.7) rotate(-9.8) scale(1 -.6)" gradientUnits="userSpaceOnUse">
      <stop offset="0" stop-color="#fff"/>
      <stop offset=".4" stop-color="#ef444e"/>
      <stop offset=".7" stop-color="#bf1e2d"/>
    </radialGradient>
    <radialGradient id="radial-gradient1" cx="34.3" cy="57.3" fx="34.3" fy="39.1" r="30.8" gradientTransform="translate(42.4 132.3) rotate(-5.5) scale(1 -1.1)" gradientUnits="userSpaceOnUse">
      <stop offset="0" stop-color="#fff"/>
      <stop offset=".4" stop-color="#8dc63f"/>
      <stop offset=".7" stop-color="#006838"/>
    </radialGradient>
    <radialGradient id="radial-gradient2" cx="53.6" cy="38.2" fx="53.6" fy="38.2" r="45.6" gradientTransform="translate(0 109.9) scale(1 -1)" gradientUnits="userSpaceOnUse">
      <stop offset="0" stop-color="#fff"/>
      <stop offset=".4" stop-color="#faed32"/>
      <stop offset=".7" stop-color="#f7941d"/>
    </radialGradient>
  </defs>
  <circle class="st2" cx="55" cy="55.6" r="43.9"/>
  <path class="st0" d="M79.8,28.4c-9.5-9.2-24.3-13.6-36.9-8.6-10.7,4.3-19.2,17.1-11.9,28,2,3,7.7,7.5,10.9,3.9s-2.5-9.6-4.9-6.6c-1.7,2.2,2.7,3.2,2.7,3.4,0,2.6-7.1-2.3-3.2-5.1,4.8-3.4,11.1,4.5,7.2,9.4-.8.9-1.9.9-2.5,1.9,6.2,1,9.1-3.3,12.1-7.7v-1c.2-3.2-2.2-6-5.1-7.1-.6-.3-1.1,0-1.6-.7.5-.6,1.2-.4,1.9-.3,1.9.3,3.6,1.4,4.8,2.9.9,1.1,1.5,2.5,1.6,4,1-1.3,2-2.6,3.2-3.6,0,0,.2,0,.3-.2.5-1.9-1.2-3.9-2.6-5.1-.6-.5-1.2-.7-1.9-1,0,0-.2-.2-.3-.3.2-.3.5-.4.7-.4,2.5,0,5.6,2.8,5.7,5.5,1-.7,2.1-1.2,3.2-1.7h0c0-1.2-.2-2.6-1.1-3.4-.3-.3-.7-.5-1-.6,0,0-.3-.2-.4-.5.3-.4.7-.4,1.1-.3,1.6,0,2.6,1.6,3,3,0,.5,0,.9,0,1.4,8.9-2.8,19.1,1.1,25.3,8.3-1.8-6.4-5.6-12.7-10.4-17.3v-.2ZM81.5,38.2c-1.1-.3-1.9-.9-2.7-1.6-.8-.6-1.7-1.2-2.5-1.8-2.5-1.7-5.2-3.3-8-4.4-8.9-3.7-17.9-2.1-24.7,4.9-1.1,1.1-2,2.2-2.9,3.5-.3.4-.6.8-1.4.9,0,0-.2,0-.3-.2-.4-1.2.6-2.1,1.2-3,1.9-2.5,4.3-4.8,7-6.5,9.9-6.4,21.1-2.9,29.8,3.6,1.6,1.4,3.6,2.3,4.5,4.3,0,0,0,.3-.2.2h.2Z"/>
  <path class="st1" d="M91.8,59.5c-.9-12.1-12.6-22-24.7-19-6,1.5-10.2,6.9-8.2,13.1,2.2,6.9,12,2.2,10.8-3.2-.7-3.1-5.3-1.9-4.5.6.3.9,1.8,0,1.5,1.4-1.1.5-2.2.3-2.8-.8-1.6-3.4,4.4-7.5,7-2.5,3,5.8-5.2,12-10.7,10.1,1,1.6,1.8,3.4,2.4,5.1,2.4,1.9,5.8,1.7,8.4.2.6-.3.8-.8,1.6-.8.2.8-.5,1.2-.9,1.6-1.4,1.3-3.3,2-5.2,1.9-1.1,0-2.2-.2-3.2-.7.3,1.7.5,3.4.4,5,1.3,1.1,3.6,1,5.1.7.7,0,1.3-.5,1.9-.9h.5c0,.4,0,.6,0,.8-1.4,1.9-5.3,2.5-7.5,1.2-.2,1.2-.4,2.4-.8,3.6.9.8,2,1.3,3.2,1.1.4,0,.8-.2,1.1-.4,0,0,.3,0,.6,0,.2.5,0,.7-.4,1-1.1,1.1-2.9,1.1-4.2.5-.3,0-.6-.3-.9-.6-2.1,5.1-6.2,9.4-12.1,11.5l-6.8,1.7c20.7,6.9,50.4-8.7,48.6-32.5v.3ZM78.6,69.5c-1.2,11.7-10.9,18.3-21.5,21-2.1.4-4.1,1.3-6.2.8,0,0-.2-.2,0-.3.9-.7,1.9-.9,2.9-1.1s2-.5,3-.8c2.9-.9,5.8-2,8.4-3.5,8.5-4.6,12.8-12.6,11.7-22.3-.2-1.5-.5-3-.9-4.4-.2-.5-.2-1,0-1.6,0,0,.2-.2.3,0,1.2.5,1.2,1.8,1.6,2.8.8,3.1,1.1,6.3.7,9.5h0Z"/>
  <path class="st3" d="M45.3,59.9c-.4.3-.7.4-1.2.6-2.9,1.3-4.3,4.7-3.9,7.8,0,.7.4,1,0,1.7-.8-.2-.9-.9-1.2-1.5-.6-1.8-.5-3.8.3-5.6.6-1.5,1.8-2.8,3.3-3.5-1.3-.3-2.7-.6-3.9-1-.3,0-.6-.2-.8-.3-.3.2-.4.3-.6.3-2,.3-3.1,2.9-3.5,4.7-.2.7,0,1.4,0,2.1s0,.3,0,.4c-.4,0-.6-.2-.7-.5-1.4-2.3,0-7.1,2.9-8-1.2-.6-2.2-1.3-3.2-2.1h0c0,.2-.4.2-.6.4-1.1.5-2.2,1.4-2.5,2.6,0,.4-.1.8,0,1.2,0,0,0,.3-.3.6-.5,0-.6-.4-.8-.8-.6-1.4.2-3.1,1.3-4.1.5-.5,1.1-.8,1.8-.9-4.5-4.2-6.9-10.5-6.5-17.1,0-1.6.7-3.1.6-4.7-7.3,9.7-9.9,22.1-7,34,3.1,12.4,13.1,23.5,27,21.3,6.4-1,13.7-7.3,11.7-14.4-1.3-4.6-7.1-5.2-7.1-.5s1.3,1.8,3.5,1.9c-1.6,3.2-5.4,1.6-5.7-1.5-.5-5.9,6.4-8.5,9.9-3.8l1.9,3.2c.2-10.9-7-11.5-14.5-12.7l-.2.2ZM45.1,76.2c-.9.9-2.1.4-3.2.3-3.2-.5-6.2-1.5-9-3.1-10.2-5.8-12.4-17.3-10.8-28,.4-2.1.4-4.3,1.7-6,0,0,.3,0,.3,0,.3,1.1.1,2.1-.1,3.1s-.3,2-.4,3c-.3,3-.5,6.1-.1,9.1.9,9.7,6.5,16.8,15.8,19.5,1.4.4,2.9.7,4.4.9.5,0,1,.2,1.5.8v.3h-.1Z"/>
</svg>